<?xml version="1.0" encoding="UTF-8" standalone="no"?>
<!-- Created with Inkscape (http://www.inkscape.org/) -->

<svg
   width="64"
   height="64"
   viewBox="0 0 16.933322 16.933322"
   version="1.1"
   id="svg1"
   inkscape:version="1.3.2 (091e20e, 2023-11-25)"
   sodipodi:docname="favicon.svg"
   xmlns:inkscape="http://www.inkscape.org/namespaces/inkscape"
   xmlns:sodipodi="http://sodipodi.sourceforge.net/DTD/sodipodi-0.dtd"
   xmlns="http://www.w3.org/2000/svg"
   xmlns:svg="http://www.w3.org/2000/svg">
  <sodipodi:namedview
     id="namedview1"
     pagecolor="#505050"
     bordercolor="#eeeeee"
     borderopacity="1"
     inkscape:showpageshadow="0"
     inkscape:pageopacity="0"
     inkscape:pagecheckerboard="0"
     inkscape:deskcolor="#505050"
     inkscape:document-units="mm"
     inkscape:zoom="4.0668163"
     inkscape:cx="25.449883"
     inkscape:cy="17.089535"
     inkscape:window-width="1392"
     inkscape:window-height="950"
     inkscape:window-x="0"
     inkscape:window-y="409"
     inkscape:window-maximized="0"
     inkscape:current-layer="layer1" />
  <defs
     id="defs1" />
  <g
     inkscape:label="Layer 1"
     inkscape:groupmode="layer"
     id="layer1">
    <path
       style="fill:#2dc5ff;stroke-width:0.0244862"
       d="m 3.9411204,14.12612 c 0.1577906,-0.08521 0.3453118,-0.217754 0.4492871,-0.369228 0.028579,-0.04162 0.040543,-0.09263 0.069121,-0.134266 0.049016,-0.07141 0.1196433,-0.132557 0.1728028,-0.201398 0.1526163,-0.197633 0.2408469,-0.831835 0.2764844,-1.074118 0.011404,-0.07753 -0.019559,-0.158981 0,-0.234965 0.00395,-0.01534 0.031883,-0.01796 0.03456,-0.03356 0.018681,-0.108864 -0.018681,-0.226799 0,-0.335663 0.092672,-0.540036 0.1796103,-1.443855 0.069121,-1.9804072 -0.019817,-0.096233 0.014268,-0.205087 0,-0.3020965 C 4.9666482,9.1487026 4.9179261,8.8244821 4.8396944,8.5205576 4.8271996,8.4720144 4.7868655,8.4337621 4.7705734,8.3862925 4.746517,8.3161995 4.7353096,8.2170959 4.7014522,8.1513285 4.6730306,8.0961212 4.5835275,8.0091306 4.5632101,7.949932 c -0.00728,-0.02123 0.00728,-0.045903 0,-0.067132 C 4.5495635,7.8430385 4.4789595,7.8198441 4.4595284,7.7821005 4.4155906,7.6967525 4.3269492,7.5331038 4.217605,7.4800041 c -0.010305,-0.00501 -0.026415,0.0079 -0.034561,0 C 4.164829,7.4623131 4.166698,7.4305631 4.148483,7.4128721 4.118582,7.3838301 3.9791573,7.3491161 3.9411199,7.3121733 c -0.00815,-0.0079 0,-0.022377 0,-0.033567 -0.046081,-0.022377 -0.089366,-0.05131 -0.1382422,-0.067132 -0.021857,-0.00707 -0.047263,0.00707 -0.069121,0 -0.044505,-0.014408 -0.093736,-0.08629 -0.1382417,-0.100699 -0.021858,-0.00707 -0.048513,0.010009 -0.069122,0 -0.010305,-0.00501 0.010929,-0.030027 0,-0.033566 -0.032787,-0.010614 -0.070152,0.00815 -0.1036814,0 -0.048681,-0.01182 -0.095817,-0.080097 -0.1382424,-0.1006987 -0.020608,-0.010007 -0.046769,0.00542 -0.069121,0 C 3.0984681,6.9481309 2.9331483,6.7930317 2.8006224,6.7415461 2.4852335,6.6190203 2.1621118,6.4768741 1.8674879,6.3051858 1.8314417,6.2841805 1.5218825,6.1936271 1.5218825,6.1709206 c 0,-0.011189 0.026415,0.0079 0.034561,0 0.00815,-0.0079 -0.00815,-0.025655 0,-0.033566 0.014565,-0.014147 0.1836817,-0.025899 0.2073631,-0.033567 0.05038,-0.016311 0.1224229,-0.084388 0.1728028,-0.1006987 0.021857,-0.00707 0.046528,0.00439 0.069121,0 0.069403,0.00771 0.112617,-0.052519 0.1728028,-0.067132 0.076421,-0.018555 0.1631292,-0.022634 0.2419238,-0.033566 0.1210094,-0.01679 0.2285538,-0.048186 0.3456054,-0.067132 0.163348,-0.026441 0.3533253,0 0.518408,0 0.1815875,0 0.406669,-0.029276 0.5875292,0 0.025411,0.00412 0.043861,0.02866 0.069122,0.033567 0.1581436,0.030719 0.3601035,-0.00486 0.518408,0.033566 0.00347,8.162e-4 0.1578563,0.062294 0.1728029,0.067132 0.043716,0.014153 0.093537,-0.010855 0.1382421,0 0.040297,0.00978 0.063385,0.057349 0.1036816,0.067132 0.022352,0.00542 0.046768,-0.00542 0.069121,0 0.040341,0.00979 0.6301569,0.3099309 0.6566506,0.3356627 0.018215,0.017691 0.016345,0.049441 0.034561,0.067132 0.03643,0.035381 0.1018122,0.031751 0.1382421,0.067132 0.028472,0.027654 0.085774,0.1782078 0.1036817,0.2013968 0.029325,0.037975 0.073149,0.063631 0.1036816,0.1006988 0.060909,0.073945 0.06958,0.2018436 0.1382422,0.26853 0.018215,0.017691 0.050906,0.015875 0.069122,0.033567 0.051057,0.04959 0.09773,0.1423777 0.1382422,0.2013975 0.035456,0.051654 0.1189424,0.081954 0.1382421,0.1006988 0.00815,0.0079 -0.00515,0.023559 0,0.033566 0.027357,0.05314 0.1041562,0.084606 0.138242,0.1342651 0.2002976,0.2918022 0.3584095,0.5557127 0.5529687,0.8391558 0.044868,0.065365 0.043387,0.1428384 0.1036819,0.2013977 0.00815,0.0079 0.026415,-0.0079 0.03456,0 0.035577,0.034554 0.033542,0.066145 0.069122,0.1006988 0.024541,0.023832 0.097542,0.061172 0.1036816,0.067132 0.011521,0.011189 0.02304,0.044754 0.03456,0.033566 0.016292,-0.015824 -0.00728,-0.045902 0,-0.067132 0.041405,-0.1206421 0.043351,-0.2440847 0.069122,-0.3692292 0.00506,-0.024533 0.029509,-0.0426 0.034561,-0.067132 0.011296,-0.054857 -0.011296,-0.1129733 0,-0.1678315 C 7.6684479,7.840993 7.7022979,7.5260413 7.742784,7.2114733 7.758781,7.0872037 7.797534,6.9678888 7.811907,6.8422444 c 0.0089,-0.077842 -0.011407,-0.1574294 0,-0.234963 0.038392,-0.2609841 0.1280017,-0.5109467 0.1728034,-0.7720237 0.029588,-0.1724271 0.1374822,-0.3319733 0.1728024,-0.5034929 0.0045,-0.021944 0,-0.044755 0,-0.067133 0.011518,-0.044755 0.021509,-0.089908 0.034562,-0.1342649 0.027142,-0.092278 0.084288,-0.1743732 0.1036771,-0.268531 0.048603,-0.2360249 -0.128433,0.2399492 0.034562,-0.2349638 0.1843227,-0.5370601 -0.017111,0.1756464 0.1036813,-0.2349637 0.0695,-0.236262 0.17217,-0.5327583 0.2073632,-0.7720235 0.00649,-0.044305 -0.00757,-0.090119 0,-0.1342651 0.00421,-0.024679 0.023043,-0.044755 0.034561,-0.067132 0.011518,-0.044755 0.02784,-0.088596 0.034561,-0.1342649 0.00487,-0.033228 -0.00838,-0.068135 0,-0.100699 0.00398,-0.01535 0.031883,-0.017958 0.034561,-0.033566 0.00947,-0.055183 -0.00576,-0.1121652 0,-0.1678315 0.012233,-0.1188089 0.069123,-0.2185497 0.069123,-0.3356623 0,-0.102078 0.036399,-0.2403162 0.069124,-0.3356625 0.013325,-0.038836 -0.018572,-0.098196 0,-0.134265 0.0073,-0.014152 0.027272,-0.019413 0.034561,-0.033566 0.010197,-0.01981 0,-0.078137 0,-0.1006989 0,-0.011189 0.011518,-0.033566 0,-0.033566 -0.011636,0 0.034561,0.267338 0.034561,0.3020961 0,0.2110932 0.026806,0.3651301 0.069123,0.5706263 0.011296,0.054857 -0.00715,0.1123193 0,0.1678312 -0.00576,0.08537 0.057258,0.154327 0.069123,0.2349637 0.024379,0.1657288 0.014086,0.34314 0.069123,0.5034937 0.058638,0.1708478 0.1280154,0.3295008 0.1728023,0.5034938 0.056845,0.2208475 0.1611301,0.4468093 0.2073633,0.6713247 0.01717,0.083389 0.00678,0.1875174 0.034561,0.2685304 0.016292,0.04747 0.054971,0.086152 0.069123,0.134265 0.0095,0.032274 -0.00568,0.067588 0,0.1006988 0.057384,0.3344096 0.015547,-0.1812868 0.069123,0.234963 0.00576,0.04441 -0.00904,0.09038 0,0.1342651 0.00317,0.015515 0.029411,0.018555 0.034561,0.033566 0.1380338,0.402186 -0.022328,-0.00773 0.034561,0.2685303 0.00502,0.024534 0.029507,0.042599 0.034561,0.067132 0.018631,0.090466 0.015931,0.1780626 0.034562,0.2685301 0.013754,0.066793 0.054713,0.1314159 0.069124,0.2013967 0.02429,0.1179677 0.0046,0.2529313 0.03456,0.3692289 0.06299,0.2447165 0.08857,0.4930227 0.172803,0.7384579 0.01037,0.030209 -0.01037,0.070489 0,0.1006989 0.0052,0.015011 0.02941,0.018555 0.03456,0.033567 0.02073,0.06042 -0.02073,0.1409779 0,0.2013968 0.0052,0.015012 0.02727,0.019414 0.03456,0.033566 0.002,0.00379 0.01327,0.1729572 0.03456,0.2349639 0.0092,0.026827 -0.01949,0.115331 0,0.1342651 0.03318,0.032222 0.190652,-0.1515995 0.207365,-0.1678312 0.12852,-0.1248228 0.238387,-0.2544783 0.380165,-0.3692281 0.09307,-0.075329 0.225512,-0.1183261 0.311046,-0.2013978 0.02937,-0.028526 0.03721,-0.074873 0.06913,-0.1006987 0.03958,-0.032032 0.09632,-0.038049 0.138243,-0.067132 0.03977,-0.027592 0.06458,-0.072217 0.103681,-0.1006987 0.0092,-0.00672 0.02457,0.00555 0.03456,0 0.07212,-0.04003 0.139307,-0.087997 0.207362,-0.1342651 0.159516,-0.1084477 0.31508,-0.2084314 0.483849,-0.3020966 0.11914,-0.06612 0.407075,-0.258844 0.518407,-0.3020964 0.02139,-0.00831 0.04936,0.011513 0.06913,0 0.04191,-0.024423 0.06302,-0.074366 0.103681,-0.1006987 0.08859,-0.057363 0.252698,-0.070621 0.345606,-0.1006978 0.01545,-0.00501 0.01942,-0.02769 0.03456,-0.033566 0.396092,-0.1538787 1.134597,-0.1125244 1.555225,-0.067132 0.109336,0.011798 0.477473,-0.0062 0.552967,0.067132 0.0081,0.0079 -0.0081,0.025654 0,0.033566 0.01629,0.015823 0.05283,-0.015824 0.06913,0 0.0081,0.0079 0.0081,0.025654 0,0.033566 -0.01629,0.015824 -0.04851,-0.010009 -0.06913,0 -0.133977,0.065061 -0.300472,0.1100173 -0.449286,0.1678303 -0.2086,0.08104 -0.604962,0.3190279 -0.760333,0.4699279 -0.06741,0.065473 -0.121166,0.1261715 -0.172802,0.2013976 -0.09412,0.1371198 -0.250712,0.2309837 -0.345605,0.369229 -0.04573,0.06662 -0.120371,0.08334 -0.172803,0.1342651 -0.07544,0.073267 -0.109228,0.1862027 -0.172803,0.2685292 -0.19276,0.2496195 -0.371886,0.5082147 -0.552969,0.7720237 -0.01152,0.022377 -0.02304,0.044754 -0.03456,0.067131 0,0.011189 0.0052,0.023555 0,0.033566 -0.09634,0.1871421 -0.186967,0.3571233 -0.241924,0.5706248 -0.01611,0.062552 -0.08533,0.1143491 -0.103682,0.1678311 -0.04844,0.1411508 -0.05507,0.2947443 -0.103681,0.4363613 -0.01947,0.05673 -0.01936,0.245699 0,0.302095 0.0052,0.01502 0.03061,0.01822 0.03456,0.03357 0.01181,0.04587 0.01264,0.326657 0.03456,0.369228 0.03977,0.07724 0.04096,0.152926 0.06913,0.234963 0.02139,0.0623 0.08164,0.13716 0.103681,0.2014 0.03039,0.08853 0.04032,0.184631 0.06913,0.268529 0.01885,0.05492 0.07569,0.113471 0.103681,0.167831 0.08083,0.01747 0.02108,0.09499 0.03456,0.134265 0.02928,0.08533 0.100845,0.128754 0.138242,0.201397 0.0103,0.02002 -0.0073,0.04591 0,0.06713 0.01374,0.04003 0.08426,0.09653 0.103681,0.134266 0.03478,0.06755 0.153903,0.149474 0.207364,0.201397 0.03965,0.03851 0.217586,0.254821 0.241924,0.302097 0.05084,0.09877 0.143217,0.254289 0.172802,0.369227 0.02964,0.11518 0.129084,0.554851 0.06913,0.671325 -0.0073,0.01415 -0.0294,0.01856 -0.03456,0.03357 -0.01733,0.05052 0.01334,0.115977 0,0.167832 -0.0264,0.102571 -0.08309,0.179264 -0.138241,0.268528 -0.03466,0.05612 -0.05634,0.155418 -0.103682,0.201397 -0.0081,0.0079 -0.02304,0 -0.03456,0 -0.02304,0.02238 -0.04956,0.04181 -0.06913,0.06713 -0.07566,0.09798 -0.166558,0.197355 -0.276484,0.26853 -0.324662,0.210215 -0.665044,0.275483 -1.036816,0.335664 -0.05682,0.0092 -0.116321,-0.01097 -0.172803,0 -0.246186,0.04782 0.05871,0.02541 -0.241923,0.06713 -0.287192,0.03985 -0.576675,0.06084 -0.864014,0.1007 -0.112407,0.0156 -0.233161,-0.01366 -0.345605,0 -0.03614,0.0043 -0.06775,0.02775 -0.103683,0.03357 -0.314061,0.05084 -0.6523528,-0.04376 -0.9676939,0 -0.4642534,0.06441 -0.9467131,0.03357 -1.4169817,0.03357 -0.311045,0 -0.62209,0 -0.9331349,0 -0.1377782,0 -0.3145673,0.02616 -0.449287,0 -0.1725378,-0.0335 -0.3502136,-0.05984 -0.518451,-0.100687 -0.2578932,-0.06262 -0.5019217,-0.17222 -0.7603318,-0.234965 -0.032527,-0.0079 -0.071154,0.0079 -0.1036817,0 -0.091506,-0.02222 -0.1807157,-0.04853 -0.2764843,-0.06713 -0.045186,-0.0087 -0.094526,0.01415 -0.1382421,0 -0.015456,-0.005 -0.019105,-0.02856 -0.03456,-0.03357 -0.06953,-0.02251 -0.1756765,-0.0014 -0.241924,-0.03356 -0.046973,-0.02281 -0.091269,-0.07789 -0.1382419,-0.1007 -0.037856,-0.01839 -0.2550156,-0.113414 -0.2764845,-0.134265 -0.00815,-0.0079 0.00815,-0.02565 0,-0.03357 -0.00815,-0.0079 -0.026415,0.0079 -0.034561,0 -0.013687,-0.01329 -0.053601,-0.137683 -0.069121,-0.167831 -0.013824,-0.02685 0.013824,-0.07385 0,-0.100699 -0.012848,-0.02496 -0.073002,-0.130495 -0.03456,-0.167832 0.00815,-0.0079 0.026415,0.0079 0.03456,0 0.00815,-0.0079 -0.00515,-0.02355 0,-0.03357 0.030041,-0.05835 0.069121,-0.111885 0.1036817,-0.167829 z"
       id="path1" />
    <ellipse
       style="fill:#ffffff;stroke-width:0.0244862;fill-opacity:1"
       id="path2"
       cx="8.8142023"
       cy="2.5793316"
       rx="1.4861033"
       ry="1.4433486" />
    <ellipse
       style="fill:#ffffff;stroke-width:0.0244862;fill-opacity:1"
       id="circle2"
       cx="1.8675332"
       cy="6.1037869"
       rx="1.4861033"
       ry="1.4433486" />
    <ellipse
       style="fill:#ffffff;stroke-width:0.0244862;fill-opacity:1"
       id="circle3"
       cx="14.827736"
       cy="6.7415462"
       rx="1.4861033"
       ry="1.4433486" />
  </g>
</svg>
